<?xml version="1.0" encoding="utf-8"?>
<!-- Generator: Adobe Illustrator 22.0.0, SVG Export Plug-In . SVG Version: 6.00 Build 0)  -->
<svg version="1.1" id="Capa_1" xmlns="http://www.w3.org/2000/svg" xmlns:xlink="http://www.w3.org/1999/xlink" x="0px" y="0px"
	 viewBox="0 0 24 24" style="enable-background:new 0 0 24 24;" xml:space="preserve">
<style type="text/css">
	.st0{fill:#FFFFFF;}
</style>
<title>OnlyFans</title>
<path class="st0" d="M12,0C5.4,0,0,5.4,0,12s5.4,12,12,12c6.6,0,12-5.4,12-12C24,5.4,18.6,0,12,0z M12,1.3c5.9,0,10.8,4.8,10.8,10.7
	S17.9,22.7,12,22.7C6.1,22.7,1.2,17.9,1.2,12C1.2,6.1,6,1.3,12,1.3z M11.7,5.8c-1.2,0-2.3,0.5-3.2,1.3c-0.8,0.8-1.3,1.9-1.3,3.1v1
	l-0.6,1v1.4c0,1.3,0.5,2.6,1.5,3.5c0.9,0.9,2.2,1.4,3.5,1.4h0.9c1.3,0,2.6-0.5,3.5-1.4c0.9-0.9,1.5-2.2,1.5-3.5v-1.4l-0.5-1v-1
	c0-1.2-0.5-2.3-1.3-3.1c-0.8-0.8-2-1.3-3.2-1.3L11.7,5.8z M11.7,7.8h0.8c0.7,0,1.3,0.3,1.8,0.7C14.7,9,15,9.6,15,10.2l0,1H9.2v-1
	c0-0.6,0.3-1.3,0.7-1.7C10.4,8.1,11,7.8,11.7,7.8L11.7,7.8z M12.1,13L12.1,13c1.6,0,2,2.1,0.5,2.7h-0.1v1.2c0,0.2-0.1,0.3-0.2,0.4
	h-0.5c-0.1-0.1-0.2-0.3-0.2-0.4v-1.1C10.2,15.1,10.6,13,12.1,13L12.1,13z"/>
</svg>
