<?xml version="1.0" encoding="utf-8"?>
<!-- Generator: Adobe Illustrator 22.0.0, SVG Export Plug-In . SVG Version: 6.00 Build 0)  -->
<svg version="1.1" id="Capa_1" xmlns="http://www.w3.org/2000/svg" xmlns:xlink="http://www.w3.org/1999/xlink" x="0px" y="0px"
	 viewBox="0 0 207.3 40" style="enable-background:new 0 0 207.3 40;" xml:space="preserve">
<style type="text/css">
	.st0{clip-path:url(#SVGID_2_);fill:#2563EB;}
	.st1{clip-path:url(#SVGID_4_);fill:#FFFFFF;}
	.st2{clip-path:url(#SVGID_6_);fill:#2563EB;}
	.st3{clip-path:url(#SVGID_8_);}
	.st4{fill:#FFFFFF;}
	.st5{font-family:'Modak';}
	.st6{font-size:34.0463px;}
	.st7{clip-path:url(#SVGID_8_);fill:none;stroke:#EAB308;stroke-width:1.2769;}
	.st8{opacity:0;}
	.st9{clip-path:url(#SVGID_10_);fill:#F2E9DF;}
	.st10{clip-path:url(#SVGID_10_);fill:#EAB308;}
	.st11{clip-path:url(#SVGID_10_);fill:#3F120F;}
	.st12{clip-path:url(#SVGID_10_);fill:#DD4826;}
</style>
<g>
	<defs>
		<rect id="SVGID_1_" x="-84" y="-163" width="375" height="382.5"/>
	</defs>
	<clipPath id="SVGID_2_">
		<use xlink:href="#SVGID_1_"  style="overflow:visible;"/>
	</clipPath>
	<rect x="-84" y="-163" class="st0" width="375" height="375"/>
</g>
<g>
	<defs>
		<rect id="SVGID_3_" x="-84" y="-163" width="375" height="375"/>
	</defs>
	<clipPath id="SVGID_4_">
		<use xlink:href="#SVGID_3_"  style="overflow:visible;"/>
	</clipPath>
	<rect x="-84" y="-163" class="st1" width="375" height="375"/>
</g>
<g>
	<defs>
		<rect id="SVGID_5_" x="-84" y="-163" width="375" height="375"/>
	</defs>
	<clipPath id="SVGID_6_">
		<use xlink:href="#SVGID_5_"  style="overflow:visible;"/>
	</clipPath>
	<rect x="-84" y="-163" class="st2" width="375" height="375"/>
</g>
<g>
	<defs>
		<rect id="SVGID_7_" x="-84" y="-163" width="375" height="375"/>
	</defs>
	<clipPath id="SVGID_8_">
		<use xlink:href="#SVGID_7_"  style="overflow:visible;"/>
	</clipPath>
	<g class="st3">
		<text transform="matrix(1 0 0 1 3.1836 37.7612)" class="st4 st5 st6">O</text>
	</g>
	<g class="st3">
		<text transform="matrix(1 0 0 1 25.5742 37.7612)" class="st4 st5 st6">N</text>
	</g>
	<g class="st3">
		<text transform="matrix(1 0 0 1 46.2861 37.7612)" class="st4 st5 st6">L</text>
	</g>
	<g class="st3">
		<text transform="matrix(1 0 0 1 64.0391 37.7612)" class="st4 st5 st6">Y</text>
	</g>
	<g class="st3">
		<text transform="matrix(1 0 0 1 85.2168 37.7612)" class="st4 st5 st6">H</text>
	</g>
	<g class="st3">
		<text transform="matrix(1 0 0 1 106.5762 37.7612)" class="st4 st5 st6">A</text>
	</g>
	<g class="st3">
		<text transform="matrix(1 0 0 1 129.001 37.7612)" class="st4 st5 st6">M</text>
	</g>
	<g class="st3">
		<text transform="matrix(1 0 0 1 153.2529 37.7612)" class="st4 st5 st6">.</text>
	</g>
	<g class="st3">
		<text transform="matrix(1 0 0 1 163.3594 37.7612)" class="st4 st5 st6">C</text>
	</g>
	<g class="st3">
		<text transform="matrix(1 0 0 1 184.4375 37.7612)" class="st4 st5 st6">O</text>
	</g>
	<path class="st7" d="M194.2,36.8c-2,0-3.8-0.4-5.4-1.2c-1.6-0.8-3-2.1-4-3.7c-1-1.7-1.5-3.8-1.5-6.3c0-3.6,1.1-6.5,3.3-8.5
		c2-1.8,4.5-2.7,7.5-2.7c3.3,0,6,1,7.9,3.1c1.9,2.1,2.9,4.8,2.9,8.2c0,3.7-1,6.6-3.1,8.6C199.9,35.9,197.4,36.8,194.2,36.8z
		 M194.9,24.8c0-1.1,0-1.9-0.1-2.3c-0.1-0.4-0.3-0.6-0.5-0.6c-0.2,0-0.3,0.1-0.4,0.2c0,0.2,0.1,0.5,0.1,0.8c0,0.3,0.1,1,0.1,2.1V26
		c0,0.8,0,1.3,0,1.6c0,0.3-0.1,0.6-0.1,0.9c0,0.1,0,0.3,0,0.4c0.1,0.1,0.3,0.2,0.4,0.2c0.3,0,0.4-0.2,0.5-0.6
		c0.1-0.4,0.1-1.2,0.1-2.3V24.8z M173.2,29.6c0.1,0,0.2,0,0.3-0.1V28c0.8-0.5,1.8-0.9,3.2-1.2c1.4-0.3,2.7-0.5,4-0.5
		c0.6,0.6,1.1,1.5,1.5,2.7c0.4,1.2,0.6,2.3,0.6,3.2c-0.2,0.4-0.6,0.9-1.1,1.4c-0.5,0.5-1.2,1-1.9,1.4c-1.8,1.1-4,1.6-6.3,1.6
		c-3.4,0-6.1-1-8.1-3c-2-2-3-4.8-3-8.3c0-3.6,1.1-6.3,3.3-8.4c1-0.9,2.1-1.6,3.4-2.1c1.3-0.5,2.7-0.7,4.1-0.7c2.8,0,5.1,0.7,6.9,2
		c1.8,1.4,2.7,3,2.7,5c0,1.5-0.5,2.6-1.4,3.3c-0.9,0.7-2.2,1.1-3.7,1.1c-0.9,0-1.7-0.2-2.6-0.6c-0.9-0.4-1.4-0.8-1.6-1.2
		c0-0.9,0-1.6,0-2.1c0,0-0.1,0-0.1,0h-0.1c-0.2,0-0.3,0-0.4,0.1s-0.2,0.3-0.2,0.6c-0.1,0.3-0.1,1.1-0.1,2.4
		C172.4,28,172.6,29.6,173.2,29.6z M153.5,28.2c0.9-0.9,2.1-1.4,3.4-1.4c1.3,0,2.4,0.5,3.4,1.4c0.9,1,1.4,2.1,1.4,3.4
		s-0.5,2.4-1.4,3.4c-1,0.9-2.1,1.4-3.4,1.4s-2.4-0.5-3.4-1.4c-0.9-0.9-1.4-2.1-1.4-3.4S152.6,29.2,153.5,28.2z M146.3,36.6
		c-1.5,0-2.7-0.2-3.6-0.7c-0.9-0.5-1.4-1.3-1.5-2.2l-0.1-1.6c1-0.2,1.9-0.9,2.6-1.9c0.2-0.3,0.3-0.5,0.3-0.7c0-0.3-0.1-0.4-0.4-0.4
		h0c0,0,0,0-0.1,0c-0.8,1.6-2,2.4-3.8,2.4c-0.9,0-1.6-0.2-2.3-0.6s-1.2-1.1-1.7-2h-0.1c-0.3,0-0.4,0.1-0.4,0.4
		c0,0.2,0.1,0.4,0.2,0.6c0.4,0.7,1,1.3,1.7,1.7c0.5,0.4,1.1,0.6,1.6,0.6l-0.1,3.1c-0.7,0.4-1.4,0.7-2.1,0.9
		c-0.7,0.2-1.8,0.3-3.1,0.3s-2.6-0.3-3.6-0.8c-1.3-0.7-2-1.6-2-2.7c0-1.5,0.3-5,0.9-10.8c0.3-3,0.6-5.1,0.7-6.3
		c1.1-1,2.8-1.5,5.1-1.5c1.6,0,3,0.3,4,0.9l0.9,3.1l-0.6,2.4c0,0.2-0.1,0.3-0.1,0.5c0,0.4,0.2,0.6,0.7,0.6l1.6-6.6
		c0.5-0.2,1-0.5,1.8-0.6c0.7-0.2,1.5-0.3,2.4-0.3c1.6,0,2.8,0.3,3.6,0.8s1.2,1.5,1.4,2.8c0,0.2,0.1,0.6,0.1,1.2
		c1,8.7,1.5,13.8,1.5,15.3C150.4,35.9,148.6,36.6,146.3,36.6z M112.6,30.3c-0.1,0.2-0.2,0.3-0.2,0.4c0,0.3,0.3,0.6,0.9,0.8
		c0.6,0.2,1.3,0.4,2.2,0.4c0.1,1.6,0.3,2.5,0.5,2.7c-0.2,0.4-0.8,0.8-1.7,1.2s-2,0.6-3.2,0.6c-1.6,0-2.9-0.3-4.1-1
		c-1.1-0.7-1.7-1.6-1.7-2.6c0-0.3,0-0.5,0.1-0.8l3.5-15.8c0.9-0.6,1.9-1,3.2-1.3c1.2-0.3,2.5-0.5,3.8-0.5c1.9,0,3.5,0.3,4.9,1
		c1.5,0.7,2.5,1.8,2.8,3.2l3.8,15.7c-1.2,1.5-3,2.2-5.6,2.2c-1.3,0-2.3-0.2-3.2-0.7s-1.4-1.1-1.5-1.9l-0.4-2c0.7,0,1.3-0.1,1.9-0.4
		c0.6-0.2,0.9-0.5,0.9-0.8c0-0.2-0.1-0.3-0.2-0.4c-0.4,0.3-0.9,0.5-1.5,0.7c-0.6,0.2-1.2,0.2-1.7,0.2
		C114.6,31.2,113.4,30.9,112.6,30.3z M115.9,25.3c0.1,0.1,0.2,0.1,0.4,0.1s0.3,0,0.5-0.1c-0.3-1.7-0.5-2.7-0.6-3
		c-0.1-0.3-0.3-0.5-0.5-0.5c-0.1,0-0.2,0-0.4,0.1L115.9,25.3z M104.5,18.6v16.5c-1.2,0.9-2.8,1.4-4.8,1.4c-1.5,0-2.7-0.3-3.6-0.9
		c-0.9-0.6-1.4-1.5-1.4-2.7v-3.3H96c0.5,0,0.7-0.1,0.9-0.2c0.1-0.1,0.2-0.3,0.2-0.6h-5.2c0,0.3,0,0.5,0.1,0.6
		c0.1,0.1,0.3,0.2,0.7,0.2H94v5.5c-0.9,0.6-1.7,0.9-2.4,1.1c-0.8,0.2-1.5,0.3-2.3,0.3c-1.5,0-2.7-0.3-3.6-0.9
		c-0.9-0.6-1.4-1.5-1.4-2.7V16.4c0.6-0.6,1.3-1.1,2.1-1.4c0.8-0.3,1.7-0.5,2.7-0.5c1.3,0,2.5,0.3,3.4,1c1,0.8,1.5,1.8,1.5,3.1v3h2.1
		c0-0.3-0.1-0.5-0.2-0.6c-0.1-0.1-0.3-0.2-0.5-0.2h-0.6v-4.4c0.6-0.6,1.3-1.1,2.1-1.4c0.8-0.3,1.7-0.5,2.7-0.5c1.3,0,2.5,0.3,3.4,1
		C104,16.3,104.5,17.3,104.5,18.6z M69.9,31.2c0.3,0,0.5-0.2,0.5-0.5c-2.4-1.6-4.3-3.6-5.6-6c-1.3-2.4-2-5-2.2-7.8
		c0.5-0.7,1.2-1.3,2.2-1.7c1-0.4,2-0.6,3.1-0.6c1.4,0,2.6,0.3,3.6,0.8c0.6,1.7,1.1,3.3,1.5,4.8c-0.5,2.4-0.8,3.6-0.8,3.6
		c0,0.2-0.1,0.3-0.1,0.5c0,0.4,0.2,0.6,0.6,0.6c0.1-0.4,0.4-1.7,0.9-3.8c0.1-0.5,0.3-1.3,0.5-2.3c0.2-1,0.5-2.1,0.8-3.4
		c1-0.5,2.2-0.7,3.5-0.7c1.6,0,2.8,0.4,3.8,1.2c0.9,0.8,1.4,1.9,1.4,3.3c0,2.1-0.6,4.2-1.8,6.2c-0.9,1.6-2.2,3.1-3.7,4.5v5.5
		c-0.9,0.6-1.7,0.9-2.5,1.1s-1.5,0.3-2.3,0.3c-1.5,0-2.7-0.3-3.6-0.9c-0.9-0.6-1.3-1.4-1.3-2.6v-2.9c0.2,0.2,0.5,0.4,0.8,0.7
		C69.4,31.1,69.7,31.2,69.9,31.2z M49.2,36.3c-1.2,0-2.2-0.3-2.9-1s-1-1.6-1-3V16.1c0.6-0.5,1.3-0.9,2.2-1.2
		c0.8-0.3,1.7-0.4,2.6-0.4c1.3,0,2.5,0.3,3.4,1c1,0.8,1.5,1.8,1.5,3.1v9.1c-0.6,0.1-1.2,0.2-1.8,0.5c-0.6,0.3-0.9,0.6-0.9,0.9
		c0,0.2,0.1,0.3,0.3,0.5c1.1-0.9,2.7-1.4,4.9-1.4h3.9c0.7,1.3,1.1,2.6,1.1,3.9c0,0.7-0.1,1.4-0.3,2.2c-0.2,0.8-0.5,1.4-0.9,1.9H49.2
		z M24.6,33.2V16.5c0-0.6,0.5-1.1,1.4-1.4c0.9-0.4,2-0.6,3.3-0.6c0.7,0,1.4,0.1,2,0.3c0.6,0.2,1.1,0.4,1.4,0.7
		c0.5,0.6,0.9,1.2,1.2,1.8c0.4,0.6,1.2,2,2.5,4.2c0.1,0,0.2,0,0.3-0.1c0.1-0.1,0.1-0.2,0.1-0.4s-0.1-0.5-0.4-0.9l-1.8-3.1V16
		c0.6-0.5,1.3-0.8,2.1-1.1c0.8-0.3,1.6-0.4,2.5-0.4c1.4,0,2.5,0.3,3.4,0.8c1,0.6,1.5,1.6,1.5,2.9v15.7c0,1-0.5,1.6-1.4,2.1
		c-0.8,0.4-1.8,0.6-3.1,0.6c-0.7,0-1.4-0.1-2.1-0.2c-0.7-0.2-1.2-0.4-1.6-0.6c-0.8-1-1.6-2.1-2.3-3.4L32,29.5
		c-0.3,0-0.5,0.2-0.5,0.5c0,0.2,0.2,0.5,0.5,1.1l2.1,3.4v0.9c-1.3,0.8-2.7,1.2-4.3,1.2c-1.6,0-2.9-0.3-3.8-0.9
		C25.1,35.1,24.6,34.3,24.6,33.2z M13,36.8c-2,0-3.8-0.4-5.4-1.2c-1.6-0.8-3-2.1-4-3.7C2.5,30.1,2,28,2,25.5C2,21.9,3.1,19,5.3,17
		c2-1.8,4.5-2.7,7.5-2.7c3.3,0,6,1,7.9,3.1c1.9,2.1,2.9,4.8,2.9,8.2c0,3.7-1,6.6-3.1,8.6C18.7,35.9,16.1,36.8,13,36.8z M13.6,24.8
		c0-1.1,0-1.9-0.1-2.3s-0.3-0.6-0.5-0.6c-0.2,0-0.3,0.1-0.4,0.2c0,0.2,0.1,0.5,0.1,0.8c0,0.3,0.1,1,0.1,2.1V26c0,0.8,0,1.3,0,1.6
		c0,0.3-0.1,0.6-0.1,0.9c0,0.1,0,0.3,0,0.4c0.1,0.1,0.3,0.2,0.4,0.2c0.3,0,0.4-0.2,0.5-0.6s0.1-1.2,0.1-2.3V24.8z"/>
	<g class="st3">
		<text transform="matrix(1 0 0 1 1.6787 36.2563)" class="st8 st5 st6">O</text>
		<text transform="matrix(1 0 0 1 24.0693 36.2563)" class="st8 st5 st6">N</text>
		<text transform="matrix(1 0 0 1 44.7813 36.2563)" class="st8 st5 st6">L</text>
		<text transform="matrix(1 0 0 1 62.5342 36.2563)" class="st8 st5 st6">Y</text>
		<text transform="matrix(1 0 0 1 83.7119 36.2563)" class="st8 st5 st6">H</text>
		<text transform="matrix(1 0 0 1 105.0713 36.2563)" class="st8 st5 st6">A</text>
		<text transform="matrix(1 0 0 1 127.4961 36.2563)" class="st8 st5 st6">M</text>
		<text transform="matrix(1 0 0 1 151.748 36.2563)" class="st8 st5 st6">.</text>
		<text transform="matrix(1 0 0 1 161.8545 36.2563)" class="st8 st5 st6">C</text>
		<text transform="matrix(1 0 0 1 182.9326 36.2563)" class="st8 st5 st6">O</text>
	</g>
</g>
<g>
	<defs>
		<rect id="SVGID_9_" x="11.1" y="0" width="12" height="13.5"/>
	</defs>
	<clipPath id="SVGID_10_">
		<use xlink:href="#SVGID_9_"  style="overflow:visible;"/>
	</clipPath>
	<path class="st9" d="M18,13.5c-0.8,0-1.6-0.1-2.3-0.2c-1.4-0.2-4.6-0.9-4.5-2.5l-0.1-6.3c0-0.2,0-0.3,0.1-0.5
		c0.1-0.1,0.2-0.3,0.4-0.3c0.2-0.1,0.3-0.1,0.5,0c0.2,0,0.3,0.1,0.4,0.3l1.8,2.4l2.5-5.8C17.1,0.2,17.3,0,17.7,0c0,0,0.1,0,0.1,0
		c0.2,0,0.3,0.1,0.5,0.2c0.1,0.1,0.2,0.3,0.2,0.5L19.2,7l2.7-1.6c0.2-0.1,0.3-0.1,0.5-0.1c0.2,0,0.3,0.1,0.5,0.2
		c0.1,0.1,0.2,0.3,0.3,0.4c0,0.2,0,0.3,0,0.5l-2.3,6c-0.3,1-1.6,1.1-2,1.1C18.5,13.5,18.3,13.5,18,13.5z"/>
	<polygon class="st10" points="12,10.8 20,12.1 22.3,6.1 18.5,8.3 17.7,0.9 14.6,7.9 11.9,4.5 	"/>
	<path class="st11" d="M12.2,10.6l7.7,1.3l2.1-5.4l-3.3,2c-0.1,0-0.1,0-0.2,0c-0.1,0-0.1-0.1-0.1-0.1l-0.8-6.8L14.8,8
		c0,0.1-0.1,0.1-0.1,0.1c-0.1,0-0.1,0-0.2-0.1l-2.3-3L12.2,10.6z M20,12.3C19.9,12.3,19.9,12.3,20,12.3L12,11
		c-0.1,0-0.2-0.1-0.2-0.2l-0.1-6.3c0-0.1,0-0.1,0.1-0.2c0.1,0,0.1,0,0.2,0.1l2.5,3.2l2.9-6.8c0-0.1,0.1-0.1,0.2-0.1
		c0.1,0,0.1,0.1,0.2,0.2L18.7,8l3.5-2.1c0.1,0,0.1,0,0.2,0s0.1,0.1,0.1,0.2l-2.3,6.1C20.1,12.3,20,12.3,20,12.3z"/>
	<path class="st12" d="M16.1,10.4c0.5,0.1,1,0.2,1.5,0.3s0.9,0.3,1.3,0.4s0.6,0.3,0.8,0.5c0.2,0.2,0.3,0.3,0.2,0.4
		c0,0.1-0.1,0.2-0.4,0.3c-0.2,0.1-0.5,0.2-0.9,0.2c-0.4,0-0.8,0-1.3,0c-0.5,0-1-0.1-1.5-0.2c-0.5-0.1-1-0.2-1.5-0.3
		c-0.5-0.1-0.9-0.3-1.3-0.4s-0.6-0.3-0.8-0.5S12,10.9,12,10.8c0-0.1,0.1-0.2,0.4-0.3c0.2-0.1,0.5-0.2,0.9-0.2c0.4,0,0.8,0,1.3,0
		S15.6,10.4,16.1,10.4z"/>
	<path class="st11" d="M13.9,10.4c-0.2,0-0.4,0-0.6,0c-0.8,0.1-1.1,0.3-1.1,0.4c0,0.3,1.2,1.1,3.7,1.5c1,0.2,2.1,0.2,2.8,0.2
		c0.8-0.1,1.1-0.3,1.1-0.4c0-0.1-0.2-0.4-0.9-0.7c-0.7-0.3-1.7-0.6-2.7-0.8C15.4,10.5,14.7,10.4,13.9,10.4z M18,12.9
		c-0.8,0-1.5-0.1-2.2-0.2c-2.1-0.3-4.1-1.1-4-1.9c0.1-0.4,0.5-0.6,1.4-0.7c0.8-0.1,1.8,0,2.9,0.2c1.1,0.2,2.1,0.5,2.8,0.8
		c0.8,0.4,1.2,0.7,1.2,1.1c-0.1,0.4-0.5,0.6-1.4,0.7C18.5,12.9,18.3,12.9,18,12.9z"/>
</g>
</svg>
