<?xml version="1.0" standalone="no"?>
<!DOCTYPE svg PUBLIC "-//W3C//DTD SVG 20010904//EN"
 "http://www.w3.org/TR/2001/REC-SVG-20010904/DTD/svg10.dtd">
<svg version="1.0" xmlns="http://www.w3.org/2000/svg"
 width="881.000000pt" height="881.000000pt" viewBox="0 0 881.000000 881.000000"
 preserveAspectRatio="xMidYMid meet">
<metadata>
Created by potrace 1.14, written by Peter Selinger 2001-2017
</metadata>
<g transform="translate(0.000000,881.000000) scale(0.100000,-0.100000)"
fill="#000000" stroke="none">
<path d="M5138 8292 c-29 -17 -40 -37 -113 -202 -81 -181 -177 -395 -197 -440
-12 -25 -29 -65 -40 -90 -38 -89 -43 -100 -49 -100 -3 0 -65 74 -138 165 -73
91 -145 171 -159 179 -51 25 -118 7 -149 -41 -18 -28 -18 -35 -9 -700 5 -293
8 -310 63 -357 l25 -22 -133 0 c-187 1 -287 -11 -449 -50 -216 -53 -442 -154
-635 -284 -219 -148 -482 -398 -620 -590 -22 -30 -42 -57 -45 -60 -13 -11
-140 -211 -187 -295 -57 -101 -163 -318 -163 -335 0 -5 -5 -18 -10 -28 -29
-50 -141 -394 -163 -502 -3 -14 -8 -36 -11 -50 -3 -14 -10 -47 -16 -75 -5 -27
-12 -61 -15 -75 -3 -14 -8 -45 -11 -70 -3 -25 -7 -52 -9 -60 -4 -15 -18 -143
-18 -168 -1 -36 -143 35 -217 108 -90 89 -159 249 -114 264 11 4 31 23 45 44
91 128 48 295 -94 369 -42 21 -130 24 -184 6 -171 -58 -214 -292 -76 -413 31
-27 41 -46 55 -104 16 -62 59 -161 101 -233 21 -35 96 -115 150 -160 72 -59
249 -143 302 -143 12 0 15 -20 16 -107 1 -170 4 -212 30 -418 41 -325 157
-692 307 -975 129 -243 273 -433 460 -610 l105 -99 -94 -130 c-52 -72 -130
-182 -174 -245 -44 -63 -84 -115 -89 -115 -5 -1 -52 41 -105 92 -101 98 -137
117 -211 111 -38 -3 -95 -25 -120 -46 -43 -35 -63 -81 -68 -152 -4 -68 -2 -73
29 -120 19 -28 48 -57 64 -67 45 -24 398 -139 429 -139 50 0 82 28 162 140 43
61 104 147 134 189 128 181 216 304 230 322 14 18 20 16 150 -49 197 -98 348
-144 585 -177 17 -3 97 -16 415 -70 161 -27 408 -27 590 1 69 10 237 56 323
88 l87 33 169 -236 c93 -130 174 -246 181 -257 30 -49 116 -74 165 -48 14 7
27 12 28 12 1 -1 75 22 164 51 178 58 221 83 253 150 72 149 -46 319 -206 297
-65 -9 -94 -27 -191 -121 -48 -47 -90 -82 -94 -78 -4 5 -55 76 -114 158 -58
83 -112 158 -120 167 -12 15 -9 20 33 44 65 38 206 138 272 193 356 298 630
675 826 1138 25 60 47 113 48 118 3 12 14 41 27 73 8 21 75 246 84 282 23 94
66 310 71 352 3 29 7 59 9 66 3 7 7 47 11 90 4 42 8 84 9 92 1 8 28 30 61 48
236 133 397 356 445 617 12 61 16 69 54 95 106 73 146 221 91 342 -90 201
-370 219 -493 32 -22 -35 -40 -115 -38 -167 4 -64 47 -148 97 -192 23 -19 45
-35 49 -35 23 0 -47 -190 -98 -265 -32 -48 -143 -168 -149 -162 -2 2 -6 50 -9
107 -13 249 -43 467 -92 655 -8 33 -16 67 -18 75 -19 89 -127 375 -192 505
-232 463 -554 798 -955 992 -43 20 -78 40 -78 44 0 3 18 9 39 12 55 7 130 46
156 82 16 23 73 153 81 185 0 3 5 14 9 25 20 46 168 424 185 470 10 28 34 86
52 130 18 44 33 90 32 103 -1 12 -2 30 -3 40 -1 23 -28 54 -58 70 -50 27 -82
15 -283 -102 -107 -63 -198 -111 -201 -108 -4 4 -10 34 -13 67 -3 33 -11 98
-17 145 -5 47 -12 103 -15 125 -2 22 -6 56 -9 75 -2 19 -7 55 -10 80 -3 25 -7
61 -10 80 -6 45 -13 101 -20 170 -11 96 -15 114 -34 140 -36 50 -102 64 -153
32z"/>
</g>
</svg>
